<?xml version="1.0" encoding="UTF-8" standalone="no"?><!DOCTYPE svg PUBLIC "-//W3C//DTD SVG 1.1//EN" "http://www.w3.org/Graphics/SVG/1.1/DTD/svg11.dtd"><svg width="100px" height="100px" version="1.1" xmlns="http://www.w3.org/2000/svg" xmlns:xlink="http://www.w3.org/1999/xlink" xml:space="preserve" style="fill-rule:evenodd;clip-rule:evenodd;stroke-linecap:round;stroke-linejoin:round;stroke-miterlimit:1.5;"><path d="M25.341,27.862L20.887,28.425L17.303,29.859L13.924,32.829L12.132,35.593L10.596,39.382L9.725,43.273L9.674,47.421L9.879,51.005L10.289,54.281L11.313,57.712L13.002,60.579L15.357,63.395L18.02,65.136L21.911,66.313L25.905,66.467L29.898,65.955L33.277,64.521L35.94,62.627L38.193,60.118L39.319,57.763L40.343,54.998L41.06,51.67L41.521,48.086L41.265,44.809L40.753,40.201L39.677,37.232L38.449,34.006L36.247,31.395L33.277,29.501L29.898,28.169L26.263,27.862L35.735,63.753L37.578,65.75L39.78,67.286L41.879,68.925L44.081,70.102L46.487,71.177L56.727,66.109L56.727,63.753L56.778,61.04L56.778,58.429L56.727,55.92L56.727,53.001L56.778,50.493L56.778,47.779L56.727,44.4L56.778,41.584L56.727,38.512L56.778,36.054L56.829,33.033L56.778,29.859L56.727,27.657L88.778,30.013L85.45,28.528L81.969,27.913L78.589,27.965L76.439,28.477L73.981,30.064L72.036,32.47L71.473,35.542L71.831,38.768L73.674,41.993L76.593,44.144L80.74,46.294L84.119,48.035L87.498,50.595L90.109,53.411L90.621,56.585L89.905,60.067L88.573,62.576L86.269,64.573L83.505,65.853L81.252,66.518L78.845,66.467L75.722,66.109L72.957,65.392L71.063,64.47L69.22,63.19L2,22L2,20L4,20L96,80L98,80L98,78L2,78L2,80L4,80L98,22L98,20L96,20" style="fill:none;stroke:black;stroke-width:1px;"/></svg>